<?xml version="1.0" encoding="UTF-8" standalone="no"?>
<svg
   xmlns:dc="http://purl.org/dc/elements/1.1/"
   xmlns:cc="http://creativecommons.org/ns#"
   xmlns:rdf="http://www.w3.org/1999/02/22-rdf-syntax-ns#"
   xmlns:svg="http://www.w3.org/2000/svg"
   xmlns="http://www.w3.org/2000/svg"
   width="73.989685mm"
   height="64.633713mm"
   viewBox="0 0 73.989685 64.633713"
   version="1.1"
   id="svg8">
  <defs
     id="defs2">
    <filter
       style="color-interpolation-filters:sRGB"
       id="filter1473"
       x="-0.00019010541"
       width="1.0003802"
       y="-0.00021763588"
       height="1.0004354">
      <feGaussianBlur
         stdDeviation="0.0058585392"
         id="feGaussianBlur1475" />
    </filter>
  </defs>
  <metadata
     id="metadata5">
    <rdf:RDF>
      <cc:Work
         rdf:about="">
        <dc:format>image/svg+xml</dc:format>
        <dc:type
           rdf:resource="http://purl.org/dc/dcmitype/StillImage" />
        <dc:title></dc:title>
      </cc:Work>
    </rdf:RDF>
  </metadata>
  <g
     id="layer1"
     transform="translate(-12.312568,-11.355522)">
    <g
       id="g205"
       transform="translate(-112.34553,-33.290545)"
       style="filter:url(#filter1473)">
      <path
         d="m 145.20182,107.24227 c 7.62012,3.35032 16.03169,2.39515 22.55096,-1.79456 -2.0724,-0.10854 -4.12314,-0.3618 -6.15222,-0.73092 -2.31698,-0.41969 -4.61245,-0.99858 -6.8574,-1.70772 -4.49724,-1.41835 -8.8433,-3.321374 -12.93046,-5.680347 -2.04355,-1.179486 -4.02234,-2.481986 -5.90758,-3.900264 -1.65498,-1.251848 -3.23801,-2.590528 -4.7275,-4.052223 1.37436,7.663115 6.39688,14.522944 14.0242,17.866034 z"
         id="path2"
         style="fill:#a02c2c;stroke-width:0.0721582" />
      <path
         d="m 124.88148,75.598824 c 0.86347,4.536969 4.07271,8.741223 7.28913,11.896095 3.97197,3.900265 8.76422,7.076918 13.71479,9.573377 7.95831,4.023354 17.29092,6.830884 26.27101,6.367774 3.40358,-0.17359 7.02296,-0.87557 9.94429,-2.72077 1.02897,-0.64402 1.99318,-1.468935 2.77757,-2.474754 1.53979,-1.968223 2.18026,-4.471918 1.86359,-6.946668 -0.38137,-2.981278 -1.89244,-5.651403 -3.74171,-7.952415 -0.77712,-0.969639 -1.59022,-1.837972 -2.40325,-2.633944 0.26616,1.555764 0.38849,3.133236 0.3741,4.725181 -0.007,0.318389 -0.0143,0.636778 -0.0287,0.955167 0.17262,0.311152 0.33819,0.629541 0.49642,0.94793 0.94269,1.961059 1.71975,4.406792 0.84915,6.526973 -0.59004,1.447223 -1.90683,2.496459 -3.33875,3.104292 -3.03654,1.288028 -6.63433,1.316973 -9.85795,1.063709 -9.18876,-0.723611 -18.31989,-4.341667 -26.11278,-9.175463 -0.87786,-0.542708 -1.73413,-1.121597 -2.57602,-1.707722 -4.08709,-2.872736 -8.44042,-6.534209 -10.40481,-11.266626 -1.00019,-2.409626 -0.95702,-5.050807 1.10812,-6.852598 1.35277,-1.186723 3.30277,-1.91757 5.02971,-2.330029 1.3096,-1.345916 2.7703,-2.547111 4.36052,-3.589111 -0.33099,-0.01447 -0.66199,-0.02895 -1.00018,-0.03618 -3.18045,-0.07236 -6.53359,0.296681 -9.39744,1.794556 -2.1083,1.099889 -3.92879,2.8655 -4.80665,5.086987 -0.69797,1.780083 -0.76273,3.76285 -0.41015,5.64424 z"
         id="path4"
         style="fill:#ff9955;stroke-width:0.0721582" />
      <path
         d="m 138.45236,67.537722 c -1.23045,1.143306 -2.34576,2.416862 -3.31717,3.791723 -1.15849,1.635361 -2.95738,3.87132 -2.09391,5.91914 0.4893,1.165014 1.38155,2.120181 2.26661,2.988514 6.26016,6.136223 14.20408,10.340404 22.4862,13.148016 5.10887,1.729358 10.45519,2.974042 15.83748,2.749722 1.00739,-0.04349 2.10838,-0.180903 2.80628,-0.911822 0.35978,-0.376206 0.56845,-0.861025 0.75554,-1.345917 3.00056,-7.793293 1.60469,-17.135113 -3.54016,-23.691031 -5.14484,-6.555917 -13.85877,-10.094376 -22.09044,-8.965543 -4.35333,0.593362 -8.49079,2.481987 -11.88711,5.260654 -0.42468,0.340169 -0.82756,0.694739 -1.22332,1.056544 z"
         id="path6"
         style="fill:#ff5555;stroke-width:0.0721582" />
      <ellipse
         cx="191.94183"
         cy="65.930511"
         id="circle8"
         style="fill:#2a7fff;stroke-width:0.0721582"
         rx="6.6918941"
         ry="6.7295842" />
      <ellipse
         cx="142.53569"
         cy="48.437378"
         id="circle10"
         style="fill:#bc5fd3;stroke-width:0.0721582"
         rx="3.7560954"
         ry="3.7772505" />
    </g>
  </g>
</svg>
